<svg width="85" height="82" viewBox="0 0 85 82" fill="none" xmlns="http://www.w3.org/2000/svg">
<path fill-rule="evenodd" clip-rule="evenodd" d="M44.0352 6.38499C49.9007 6.70337 55.1339 2.58313 61.0058 2.43098C69.0058 2.22369 82.3461 -2.3315 84.574 5.33459C87.4157 15.1128 71.5403 21.5356 69.4535 31.499C68.4265 36.4025 75.5918 39.7352 76.3309 44.6909C77.1249 50.0146 75.2627 55.282 73.7718 60.4539C71.9001 66.9469 72.0273 75.3314 66.4099 79.1069C60.8814 82.8227 52.9523 80.8074 46.6275 78.6978C40.9114 76.7913 38.4729 68.3949 32.4768 67.789C24.4349 66.9763 17.2779 77.4751 9.59889 74.9559C3.24251 72.8707 0.0604785 63.9738 0.568414 57.3213C1.13296 49.9274 10.0016 45.7616 12.3647 38.7316C13.791 34.4884 11.5638 29.9617 11.2665 25.4956C10.8057 18.5739 6.19337 10.6714 10.1154 4.94412C13.6624 -0.235501 21.9924 0.387484 28.2778 0.654479C33.9246 0.894344 38.3917 6.07865 44.0352 6.38499Z" fill="#FF5E14" fill-opacity="0.08"/>
</svg>
