<svg width="158" height="177" viewBox="0 0 158 177" fill="none" xmlns="http://www.w3.org/2000/svg">
<path fill-rule="evenodd" clip-rule="evenodd" d="M40.0565 54.1266C46.9738 47.0013 47.5298 35.7549 53.8543 28.099C62.4709 17.6686 71.4722 -4.39757 83.72 1.27201C99.3422 8.50366 89.9079 35.8754 100.295 49.5967C105.407 56.3498 117.611 50.9133 124.75 55.4723C132.419 60.3699 137.068 68.5917 142.007 76.234C148.208 85.8285 159.04 94.9741 157.618 106.328C156.219 117.502 144.847 125.374 135.136 131.097C126.359 136.269 112.947 130.057 105.518 137.03C95.5541 146.381 100.995 167.161 89.2587 174.156C79.5436 179.946 64.6673 174.126 56.749 166.094C47.9482 157.166 52.4819 141.233 46.1417 130.416C42.3149 123.887 34.0707 121.702 28.0462 117.123C18.7092 110.027 3.51297 107.135 0.564446 95.7761C-2.10215 85.5035 7.93939 75.5741 15.2574 67.8563C21.8317 60.9228 33.4009 60.9822 40.0565 54.1266Z" fill="#FF5E14"/>
</svg>
